<svg xmlns="http://www.w3.org/2000/svg" xmlns:xlink="http://www.w3.org/1999/xlink" width="471.849" height="211.606" viewBox="0 0 471.849 211.606">
  <defs>
    <clipPath id="clip-path">
      <rect id="Rectangle_4780" data-name="Rectangle 4780" width="284.977" height="164.952" fill="#b2b8ff"/>
    </clipPath>
    <clipPath id="clip-path-4">
      <rect id="Rectangle_4775" data-name="Rectangle 4775" width="154.627" height="90.114" fill="#b2b8ff"/>
    </clipPath>
    <clipPath id="clip-path-5">
      <rect id="Rectangle_4776" data-name="Rectangle 4776" width="218.027" height="126.508" fill="#b2b8ff"/>
    </clipPath>
    <clipPath id="clip-path-7">
      <rect id="Rectangle_4768" data-name="Rectangle 4768" width="210.917" height="116.099" fill="none"/>
    </clipPath>
    <clipPath id="clip-path-8">
      <rect id="Rectangle_4772" data-name="Rectangle 4772" width="76.462" height="41.046" fill="none"/>
    </clipPath>
    <clipPath id="clip-path-9">
      <rect id="Rectangle_4767" data-name="Rectangle 4767" width="329.36" height="211.606" fill="#555fde"/>
    </clipPath>
    <clipPath id="clip-path-10">
      <rect id="Rectangle_4766" data-name="Rectangle 4766" width="166.276" height="93.057" fill="#555fde"/>
    </clipPath>
  </defs>
  <g id="Group_11787" data-name="Group 11787" transform="translate(-128.511 -181.668)">
    <g id="Group_11640" data-name="Group 11640" transform="translate(128.511 228.323)" style="mix-blend-mode: normal;isolation: isolate">
      <g id="Group_11639" data-name="Group 11639" clip-path="url(#clip-path)">
        <g id="Group_11638" data-name="Group 11638">
          <g id="Group_11637" data-name="Group 11637" clip-path="url(#clip-path)">
            <g id="Group_11636" data-name="Group 11636" style="mix-blend-mode: color-dodge;isolation: isolate">
              <g id="Group_11635" data-name="Group 11635">
                <g id="Group_11634" data-name="Group 11634" clip-path="url(#clip-path)">
                  <g id="Group_11627" data-name="Group 11627" transform="translate(65.175 37.419)" opacity="0.7" style="mix-blend-mode: screen;isolation: isolate">
                    <g id="Group_11626" data-name="Group 11626">
                      <g id="Group_11625" data-name="Group 11625" clip-path="url(#clip-path-4)">
                        <path id="Path_6442" data-name="Path 6442" d="M143.419,127.791c-20.648,0-40.1-4.665-54.775-13.136-14.844-8.571-23.019-20-23.019-32.2,0-12.087,8.054-23.394,22.681-31.839,14.454-8.345,33.687-12.942,54.153-12.942,20.648,0,40.1,4.666,54.773,13.137,14.845,8.57,23.02,20,23.02,32.2,0,12.086-8.054,23.393-22.681,31.838-14.455,8.345-33.686,12.941-54.152,12.941m-.959-88.127c-20.123,0-39,4.5-53.16,12.676C75.313,60.415,67.611,71.11,67.611,82.458c0,11.452,7.822,22.276,22.026,30.476,14.376,8.3,33.476,12.871,53.782,12.871,20.122,0,39-4.5,53.159-12.674,13.985-8.075,21.688-18.771,21.688-30.118,0-11.454-7.823-22.277-22.027-30.478-14.375-8.3-33.475-12.871-53.78-12.871" transform="translate(-65.625 -37.677)" fill="#b2b8ff"/>
                      </g>
                    </g>
                  </g>
                  <g id="Group_11630" data-name="Group 11630" transform="translate(33.475 19.222)" opacity="0.5" style="mix-blend-mode: screen;isolation: isolate">
                    <g id="Group_11629" data-name="Group 11629">
                      <g id="Group_11628" data-name="Group 11628" clip-path="url(#clip-path-5)">
                        <path id="Path_6443" data-name="Path 6443" d="M143.4,145.863c-29.178,0-56.655-6.588-77.371-18.548-20.844-12.034-32.324-28.05-32.324-45.1,0-16.9,11.309-32.736,31.844-44.592,20.406-11.782,47.571-18.27,76.49-18.27,29.178,0,56.655,6.587,77.37,18.547,20.845,12.035,32.324,28.051,32.324,45.1,0,16.9-11.31,32.736-31.844,44.591-20.406,11.783-47.571,18.271-76.489,18.271M142.04,20.845c-28.661,0-55.561,6.418-75.745,18.07-20.055,11.58-31.1,26.958-31.1,43.3,0,16.493,11.215,32.052,31.579,43.808,20.493,11.831,47.706,18.348,76.626,18.348,28.661,0,55.559-6.418,75.744-18.07,20.054-11.58,31.1-26.957,31.1-43.3,0-16.493-11.215-32.053-31.579-43.809-20.491-11.831-47.706-18.347-76.625-18.347" transform="translate(-33.706 -19.355)" fill="#b2b8ff"/>
                      </g>
                    </g>
                  </g>
                  <g id="Group_11633" data-name="Group 11633" opacity="0.3" style="mix-blend-mode: screen;isolation: isolate">
                    <g id="Group_11632" data-name="Group 11632">
                      <g id="Group_11631" data-name="Group 11631" clip-path="url(#clip-path)">
                        <path id="Path_6444" data-name="Path 6444" d="M143.38,164.952c-38.182,0-74.133-8.616-101.229-24.26C14.969,125,0,104.141,0,81.961,0,59.977,14.746,39.355,41.522,23.9,68.213,8.486,103.754,0,141.6,0c38.182,0,74.133,8.616,101.23,24.259,27.181,15.694,42.151,36.552,42.151,58.731,0,21.984-14.747,42.6-41.523,58.064-26.691,15.41-62.231,23.9-100.074,23.9M141.6.993c-37.671,0-73.035,8.439-99.577,23.763C15.563,40.032.993,60.346.993,81.961c0,21.81,14.793,42.362,41.654,57.871,26.947,15.558,62.721,24.126,100.732,24.126,37.671,0,73.036-8.44,99.577-23.764,26.456-15.275,41.027-35.589,41.027-57.2,0-21.81-14.793-42.362-41.654-57.872C215.382,9.561,179.607.993,141.6.993" transform="translate(0 0)" fill="#b2b8ff"/>
                      </g>
                    </g>
                  </g>
                </g>
              </g>
            </g>
          </g>
        </g>
      </g>
    </g>
    <g id="Group_11624" data-name="Group 11624" transform="translate(295.813 198.596)">
      <path id="Path_6392" data-name="Path 6392" d="M457.244,61.988l7.471,10.934L454.666,68.21Z" transform="translate(-318.866 -43.473)" fill="#555fde"/>
      <path id="Path_6393" data-name="Path 6393" d="M62.11,150.192a8.6,8.6,0,0,1-2.089-2.077c-1.466-2.358-.64-7.721,4.208-5.682a23.856,23.856,0,0,1,4.264,2.308c2.166,1.506,3.586,3.211,3.316,4.707-.352,1.98-5.7,3.524-9.7.743" transform="translate(-41.634 -99.574)" fill="#173891"/>
      <path id="Path_6394" data-name="Path 6394" d="M378.378,75.213l-18.087-10.06c-3.9-2.169-3.407-5.994,1.1-8.5s11.38-2.78,15.28-.61L394.755,66.1c3.9,2.169,3.406,5.994-1.1,8.5s-11.38,2.78-15.28.61" transform="translate(-250.834 -38.278)" fill="#555fde"/>
      <path id="Path_6395" data-name="Path 6395" d="M232.924,109.823l-7.407.678v2.6L197.8,97.685l-21.755,5.29.3,9.389a4.678,4.678,0,0,0,2.466,4.116l-54.653,18.35c4.99,2.776,24.36,34,29.351,31.22L226.675,125.1a10.95,10.95,0,0,0,5.647-6.725Z" transform="translate(-87.075 -68.508)" fill="#0e2e82"/>
      <path id="Path_6396" data-name="Path 6396" d="M351.522,53.838c-17.671-3.046-35.683,13.14-35.683,13.14l-6.488,45.649,21.429-11.8c.175-8.006,5.381-15.7,11.941-19.409,6.244-3.372,11.277-2.1,11.56,5.434l2.432-1.386V59.759a6.1,6.1,0,0,0-5.191-5.922" transform="translate(-216.955 -37.49)" fill="#555fde"/>
      <path id="Path_6397" data-name="Path 6397" d="M26.851,294.274,3,281.007a4.678,4.678,0,0,1-2.467-4.116l-.2-6.2,21.654-8.479L61.308,284.08,42.981,294.274a16.663,16.663,0,0,1-16.129,0" transform="translate(-0.236 -183.894)" fill="#0e2e82"/>
      <path id="Path_6398" data-name="Path 6398" d="M26.318,272.963,2.466,259.7a4.667,4.667,0,0,1,0-8.232L21.459,240.9l39.316,21.868L42.448,272.963a16.662,16.662,0,0,1-16.129,0" transform="translate(0 -168.949)" fill="#434fd4"/>
      <path id="Path_6399" data-name="Path 6399" d="M181.292,263.874c0-.58-6.619-24.852-20.212-14.184-5.946,4.666-16.341,25.8-10.972,29.109s31.184-14.925,31.184-14.925" transform="translate(-104.227 -173.214)" fill="#0e2e82"/>
      <path id="Path_6400" data-name="Path 6400" d="M194.012,317.287l.058-.032c1.68-.911,3.023-.13,3,1.745a6.48,6.48,0,0,1-3.033,5.018l-.058.032c-1.68.911-3.023.135-3-1.74a6.489,6.489,0,0,1,3.033-5.024" transform="translate(-133.937 -222.231)" fill="#173891"/>
      <path id="Path_6401" data-name="Path 6401" d="M186.665,304.488c3.433-1.868,6.174-.278,6.125,3.551a13.238,13.238,0,0,1-6.189,10.245l-.124.068c-3.429,1.86-6.17.27-6.121-3.559a13.224,13.224,0,0,1,6.177-10.233l.131-.073m-.08,10.295a6.481,6.481,0,0,0,3.032-5.018c.025-1.875-1.318-2.656-3-1.746l-.058.032a6.489,6.489,0,0,0-3.033,5.023c-.025,1.875,1.318,2.651,3,1.741l.058-.032" transform="translate(-126.487 -212.994)" fill="#e0e0e0"/>
      <path id="Path_6402" data-name="Path 6402" d="M176.987,286.754c5.725-3.109,10.293-.454,10.2,5.93q0,.226-.014.453a17.568,17.568,0,0,1-1.037,5.005c-1.681,4.739-5.2,9.321-9.255,11.614l-.214.119c-3.972,2.16-7.39,1.542-9.079-1.174a8.1,8.1,0,0,1-1.1-3.782q-.03-.469-.024-.968c.084-6.31,4.682-13.9,10.313-17.081l.206-.114m-.128,18.73a13.239,13.239,0,0,0,6.189-10.245c.049-3.829-2.692-5.419-6.125-3.552l-.131.073a13.224,13.224,0,0,0-6.177,10.233c-.049,3.829,2.692,5.419,6.121,3.559l.123-.069" transform="translate(-116.745 -200.194)" fill="#173891"/>
      <path id="Path_6403" data-name="Path 6403" d="M415.539,193.984l.058-.032c1.68-.911,3.023-.13,3,1.745a6.48,6.48,0,0,1-3.032,5.018l-.058.032c-1.68.911-3.023.135-3-1.74a6.489,6.489,0,0,1,3.033-5.024" transform="translate(-289.298 -135.756)" fill="#173891"/>
      <path id="Path_6404" data-name="Path 6404" d="M408.193,181.186c3.433-1.868,6.174-.277,6.125,3.552a13.24,13.24,0,0,1-6.189,10.245l-.124.068c-3.429,1.86-6.17.27-6.121-3.559a13.224,13.224,0,0,1,6.177-10.233l.131-.073m-.08,10.295a6.48,6.48,0,0,0,3.032-5.018c.025-1.875-1.318-2.656-3-1.746l-.058.032a6.489,6.489,0,0,0-3.033,5.024c-.025,1.875,1.318,2.651,3,1.74l.058-.032" transform="translate(-281.849 -126.52)" fill="#e0e0e0"/>
      <path id="Path_6405" data-name="Path 6405" d="M398.515,163.452c5.725-3.109,10.293-.454,10.2,5.93q0,.225-.014.453a17.564,17.564,0,0,1-1.037,5c-1.68,4.739-5.2,9.321-9.255,11.614l-.214.119c-3.972,2.16-7.39,1.542-9.079-1.174a8.109,8.109,0,0,1-1.1-3.783q-.03-.469-.024-.968c.084-6.31,4.682-13.9,10.313-17.081l.206-.114m-.128,18.73a13.239,13.239,0,0,0,6.189-10.245c.049-3.829-2.692-5.419-6.125-3.552l-.131.073a13.224,13.224,0,0,0-6.177,10.233c-.049,3.829,2.692,5.419,6.121,3.559l.123-.068" transform="translate(-272.107 -113.72)" fill="#173891"/>
      <path id="Path_6406" data-name="Path 6406" d="M182.63,98.726,161.2,111.368s-17.172,23.259-19.217,25.324c-1.687,1.7-18.739,14.628-19.818,16.3-2.251,3.5-2.855,5.268-2.738,8.712,0,0,.2,13.4.216,13.516,4.432-.36,6.889-2.2,8.609-2.952l2.945-1.7c.174-8.006,5.381-15.7,11.941-19.409,6.244-3.372,11.278-2.1,11.56,5.435l26.7-15.219Z" transform="translate(-83.745 -69.238)" fill="#555fde"/>
      <path id="Path_6407" data-name="Path 6407" d="M116.723,3.439l27.348,13.369a52.316,52.316,0,0,0-28.032,7.276L94.726,36.648A52.53,52.53,0,0,0,79.182,50.642C76.875,53.759,74.447,57,72.9,58.954c-1.895,2.39-8.652,11.6-8.652,11.6S52.914,78.876,48.965,83.083a32.539,32.539,0,0,0-3.61,4.638,20.065,20.065,0,0,0-3.3,11.049L11.379,80.462a20.064,20.064,0,0,1,3.3-11.049,32.578,32.578,0,0,1,3.61-4.638A157.893,157.893,0,0,1,31.881,52.607c1.1-.914,9.725-12.768,16.055-21.551A52.53,52.53,0,0,1,65.015,15.867L87.138,3.559q.386-.2.77-.382a33.052,33.052,0,0,1,28.815.262" transform="translate(-7.975 1.04)" fill="#434fd4"/>
      <path id="Path_6408" data-name="Path 6408" d="M23.906,176.129c-1.688,1.648-4.176,3.338-5.875,4.752-3.487,2.9-6.1,4.845-9.126,7.807-.637.623-1.293,1.292-1.98,2.023q-.355.379-.7.773s-4.013,4.9-4.892,7.781q-.177.459-.331.921-.171.511-.313,1.022-.164.592-.29,1.181-.16.751-.255,1.488c-.112.866-.163,5.453-.136,6.263L34.08,222.293l2.813-8.893c.231-.263.472-4.129.708-4.382.686-.731.179.817.816.194,3.029-2.962,6.71-6.691,10.2-9.589,1.7-1.414,4.071-3.324,6.245-5Z" transform="translate(0 -123.523)" fill="#434fd4"/>
      <path id="Path_6409" data-name="Path 6409" d="M8.966,237.92a1.583,1.583,0,0,0,2.3-1.28l.77-8.817a37.92,37.92,0,0,0-4.318,6.71,2.571,2.571,0,0,0,1.242,3.381l.01.005" transform="translate(-5.245 -159.777)" fill="#fff"/>
      <path id="Path_6410" data-name="Path 6410" d="M98.31,282.846l12.258-8.552a1.61,1.61,0,0,1,2.472,1.725c-.688,2.621-2.027,5.939-4.593,7.934-4.277,3.326-7.9,3.044-10.115,1.547a1.615,1.615,0,0,1-.022-2.655" transform="translate(-68.467 -192.164)" fill="#fff"/>
      <path id="Path_6411" data-name="Path 6411" d="M116.911,131.826,96.389,119.345,111.467,98.6l20.523,12.481Z" transform="translate(-67.599 -69.148)" fill="#173891"/>
      <path id="Path_6412" data-name="Path 6412" d="M137.874,144.668l-20.522-12.481,15.078-20.748,20.523,12.481Z" transform="translate(-82.301 -78.155)" fill="#173891"/>
      <path id="Path_6413" data-name="Path 6413" d="M467.919,112.933v11.761l3.812-1.832a6.516,6.516,0,0,0,2.978-2.886,6.327,6.327,0,0,0,.685-3.361l-.534-7.23Z" transform="translate(-328.319 -76.712)" fill="#555fde"/>
      <path id="Path_6414" data-name="Path 6414" d="M224.508,157.138l27.243-16.573,2.308-18.778s-16.741,5.546-30.385,31.916c-1.031,1.993-.548,4.264.835,3.434" transform="translate(-156.478 -85.412)" fill="#173891"/>
      <path id="Path_6415" data-name="Path 6415" d="M227.244,226.3a8.711,8.711,0,0,1,2.307,1.85c1.719,2.194,1.492,7.611-3.554,6.082a24.1,24.1,0,0,1-4.5-1.856c-2.32-1.274-3.921-2.824-3.819-4.339.13-2,5.274-4.09,9.561-1.737" transform="translate(-152.662 -157.976)" fill="#173891"/>
      <path id="Path_6416" data-name="Path 6416" d="M341.433,108.239l13.3-7.8c3.2-1.872,6.242-6.852,8.023-11.1.04-.1.084-.2.124-.3,1.661-4.1.4-8.234-2.533-7.692-3.348.616-16.618,7.972-17.316,8.36q-.125.06-.248.131a6.756,6.756,0,0,0-2.909,4.7L338.506,105.8c-.283,2.336,1.109,3.5,2.927,2.436" transform="translate(-237.375 -57.019)" fill="#173891"/>
      <path id="Path_6417" data-name="Path 6417" d="M474.319,101.7l.01-.1c.1-1.13-.422-1.893-1.3-1.791a3.751,3.751,0,0,0-1.323.483,15.449,15.449,0,0,0-3.181,2.61c-1.121,1.142-1.5,2.962-.749,3.642a1.011,1.011,0,0,0,1.2.026l3.294-1.751.047-.026a4.366,4.366,0,0,0,2-3.1" transform="translate(-327.79 -69.995)" fill="#fff"/>
      <line id="Line_306" data-name="Line 306" x2="22.656" y2="12.126" transform="translate(4.019 81.072)" fill="none" stroke="#2a417d" stroke-linecap="round" stroke-linejoin="round" stroke-width="1"/>
      <g id="Group_11611" data-name="Group 11611" transform="translate(53.861 63.624)" clip-path="url(#clip-path-7)">
        <path id="Path_6418" data-name="Path 6418" d="M264.1,328.16l-81.8-42.661c-2.94-1.533-2.535-4.37.906-6.335l112.728-64.41c3.44-1.966,8.612-2.316,11.552-.783l81.8,42.661c2.94,1.534,2.535,4.37-.905,6.335l-112.728,64.41c-3.44,1.966-8.612,2.316-11.552.783" transform="translate(-180.33 -213.016)" fill="#a8b2e5"/>
      </g>
      <path id="Path_6419" data-name="Path 6419" d="M373.466,250.554a4.648,4.648,0,0,0-1.092-.776l-81.8-42.661c-2.94-1.533-8.112-1.183-11.552.783L166.293,272.31a8.891,8.891,0,0,0-1.039.694l-1.83.838.037,2.53a3.275,3.275,0,0,0,1.926,2.274l81.8,42.661c2.94,1.533,8.112,1.183,11.552-.783l112.728-64.41c1.786-1.021,2.746-2.276,2.853-3.462l.018-2.018Z" transform="translate(-114.612 -144.585)" fill="#0e2e82"/>
      <path id="Path_6420" data-name="Path 6420" d="M247.184,314.532l-81.8-42.661c-2.94-1.533-2.535-4.37.906-6.335l112.727-64.409c3.44-1.966,8.612-2.316,11.552-.783L372.37,243c2.94,1.533,2.534,4.37-.906,6.335l-112.728,64.41c-3.44,1.966-8.612,2.316-11.552.783" transform="translate(-114.608 -139.835)" fill="#e0eeff"/>
      <path id="Path_6421" data-name="Path 6421" d="M247.184,314.532l-81.8-42.661c-2.94-1.533-2.535-4.37.906-6.335l112.727-64.409c3.44-1.966,8.612-2.316,11.552-.783L372.37,243c2.94,1.533,2.534,4.37-.906,6.335l-112.728,64.41C255.3,315.715,250.124,316.065,247.184,314.532Z" transform="translate(-114.608 -139.835)" fill="none" stroke="#35519c" stroke-width="1.16"/>
      <path id="Path_6422" data-name="Path 6422" d="M276.132,317.877l-78.644-41.015L310.5,213.9l78.644,41.015Z" transform="translate(-138.502 -150.012)" fill="#fff"/>
      <path id="Path_6423" data-name="Path 6423" d="M276.132,317.877l-78.644-41.015L310.5,213.9l78.644,41.015Z" transform="translate(-138.502 -150.012)" fill="none" stroke="#35519c" stroke-width="1.16"/>
      <path id="Path_6424" data-name="Path 6424" d="M668.486,258.971l-2.689-1.4c3.17-1.766,3.17-4.538,0-6.192l-14.564-7.6a13.5,13.5,0,0,0-11.48.2l-1.807-.942a14.045,14.045,0,0,0-11.949.213c-3.3,1.838-3.3,4.724,0,6.444l30.54,15.928a14.047,14.047,0,0,0,11.949-.213c3.3-1.838,3.3-4.724,0-6.445" transform="translate(-437.288 -169.588)" fill="#0e2e82"/>
      <path id="Path_6425" data-name="Path 6425" d="M668.486,250.826l-2.689-1.4c3.17-1.766,3.17-4.538,0-6.192l-14.564-7.6a13.5,13.5,0,0,0-11.48.2l-1.807-.942a14.046,14.046,0,0,0-11.949.212c-3.3,1.838-3.3,4.724,0,6.445l30.54,15.927a14.046,14.046,0,0,0,11.949-.212c3.3-1.838,3.3-4.724,0-6.445" transform="translate(-437.288 -163.876)" fill="#555fde"/>
      <path id="Path_6426" data-name="Path 6426" d="M692.345,256.511l-22.3-11.975a1.116,1.116,0,0,1-.038-1.964,1.313,1.313,0,0,1,1.3-.045l22.3,11.975a1.115,1.115,0,0,1,.038,1.963,1.313,1.313,0,0,1-1.3.045" transform="translate(-469.493 -169.984)" fill="#fff"/>
      <line id="Line_307" data-name="Line 307" x2="21.491" y2="11.367" transform="translate(183.861 94.853)" fill="none" stroke="#849ad1" stroke-linecap="round" stroke-linejoin="round" stroke-width="3"/>
      <line id="Line_308" data-name="Line 308" x2="36.336" y2="18.947" transform="translate(175.968 99.069)" fill="none" stroke="#849ad1" stroke-linecap="round" stroke-linejoin="round" stroke-width="3"/>
      <path id="Path_6427" data-name="Path 6427" d="M515.722,277.5l-14.037-7.365,13.991-7.814,14.037,7.365Z" transform="translate(-351.842 -183.971)" fill="#555fde"/>
      <path id="Path_6428" data-name="Path 6428" d="M535.973,278.784l-1.008,4.019,9.932-1.034" transform="translate(-375.181 -195.517)" fill="none" stroke="#fff" stroke-linecap="round" stroke-linejoin="round" stroke-width="2"/>
      <line id="Line_309" data-name="Line 309" x2="21.491" y2="11.367" transform="translate(152.631 111.984)" fill="none" stroke="#849ad1" stroke-linecap="round" stroke-linejoin="round" stroke-width="3"/>
      <line id="Line_310" data-name="Line 310" x2="36.336" y2="18.947" transform="translate(144.738 116.199)" fill="none" stroke="#849ad1" stroke-linecap="round" stroke-linejoin="round" stroke-width="3"/>
      <path id="Path_6429" data-name="Path 6429" d="M411.162,334.854l-14.037-7.365,13.991-7.813,14.037,7.365Z" transform="translate(-278.511 -224.195)" fill="#555fde"/>
      <path id="Path_6430" data-name="Path 6430" d="M431.412,336.139l-1.008,4.019,9.932-1.034" transform="translate(-301.851 -235.741)" fill="none" stroke="#fff" stroke-linecap="round" stroke-linejoin="round" stroke-width="2"/>
      <line id="Line_311" data-name="Line 311" x2="21.491" y2="11.367" transform="translate(121.401 129.114)" fill="none" stroke="#849ad1" stroke-linecap="round" stroke-linejoin="round" stroke-width="3"/>
      <line id="Line_312" data-name="Line 312" x2="36.336" y2="18.947" transform="translate(113.508 133.33)" fill="none" stroke="#849ad1" stroke-linecap="round" stroke-linejoin="round" stroke-width="3"/>
      <path id="Path_6431" data-name="Path 6431" d="M306.6,392.208l-14.037-7.365,13.991-7.813,14.037,7.365Z" transform="translate(-205.181 -264.419)" fill="#555fde"/>
      <path id="Path_6432" data-name="Path 6432" d="M326.852,393.493l-1.008,4.019,9.932-1.034" transform="translate(-228.521 -275.964)" fill="none" stroke="#fff" stroke-linecap="round" stroke-linejoin="round" stroke-width="2"/>
      <g id="Group_11623" data-name="Group 11623" transform="translate(143.113 103.067)" clip-path="url(#clip-path-8)">
        <path id="Path_6436" data-name="Path 6436" d="M555.276,348.14a4.7,4.7,0,0,0-6.606-2.541l-.093.048v0l-4.932,2.385a3.852,3.852,0,0,0-.562.227l-.093.048v0l-1.819.88h.005l-52.9,25.624a1.413,1.413,0,0,0-.44.158l-4.474,6.082-4.211,5.076,7.532-1.023,5.84-.626a2.492,2.492,0,0,0,.493-.665l.134.225,49.45-23.912a4.113,4.113,0,0,1-.626.421c-.031.017-.063.028-.095.043v0l2.442-1.146v0l.095-.043a5.5,5.5,0,0,0,.6-.345l1.716-.805v0c.032-.015.063-.027.095-.043a3.924,3.924,0,0,0,.983-.711l4.4-2.128v0l.095-.043a5.876,5.876,0,0,0,2.974-7.173" transform="translate(-479.148 -345.073)" fill="#a8c4e5"/>
      </g>
      <path id="Path_6437" data-name="Path 6437" d="M679.847,339.655l-.093.048v0l-9.486,4.587a5.877,5.877,0,0,0-2.974,7.174A4.7,4.7,0,0,0,673.9,354l9.486-4.587v0l.095-.043a5.876,5.876,0,0,0,2.974-7.173,4.7,4.7,0,0,0-6.606-2.541" transform="translate(-467.752 -237.838)" fill="#555fde"/>
      <path id="Path_6438" data-name="Path 6438" d="M576.273,359.742l-59.156,28.718-3.021-5.078,57.582-27.953c8.663-4.151,9.589,1.252,4.6,4.313" transform="translate(-360.545 -248.21)" fill="#265ac9"/>
      <path id="Path_6439" data-name="Path 6439" d="M509.453,380.931c-.518-2.553-2.309-.754-1.924-4.115l54.01-26.161c3.974-.73,5.4.351,5.723,2.21Z" transform="translate(-355.903 -245.76)" fill="#555fde"/>
      <path id="Path_6440" data-name="Path 6440" d="M487.65,438.749l-7.994,10.868,12.681-1.359c2.835-2.679-1.971-11.064-4.687-9.509" transform="translate(-336.391 -307.57)" fill="#e1eaf4"/>
      <path id="Path_6441" data-name="Path 6441" d="M477.346,464.634l4.21-5.076a3.774,3.774,0,0,1,3.321,4.053Z" transform="translate(-334.772 -322.297)" fill="#0e2e82"/>
      <rect id="Rectangle_4773" data-name="Rectangle 4773" width="279.734" height="179.723" transform="translate(0)" fill="none"/>
      <rect id="Rectangle_4774" data-name="Rectangle 4774" width="279.734" height="179.723" transform="translate(0)" fill="none"/>
    </g>
    <g id="Group_11641" data-name="Group 11641" transform="translate(271 181.668)">
      <g id="Group_11609" data-name="Group 11609" clip-path="url(#clip-path-9)">
        <g id="Group_11608" data-name="Group 11608" transform="translate(31.546 43.138)" opacity="0.19" style="mix-blend-mode: multiply;isolation: isolate">
          <g id="Group_11607" data-name="Group 11607">
            <g id="Group_11606" data-name="Group 11606" clip-path="url(#clip-path-10)">
              <path id="Path_6391" data-name="Path 6391" d="M119.341,166.168l64.994-37.857c1.875-1.093,27.891-6.6,29.795-5.5l40.531,22.759c3.839,5.025-1.516,9.919-5.558,12.273l-95.995,55.417a18.553,18.553,0,0,1-10.87,2.395l-47.153-4.109c-16.311-9.4,8.181-36.012,24.257-45.376" transform="translate(-89.705 -122.666)" fill="#555fde"/>
            </g>
          </g>
        </g>
      </g>
    </g>
  </g>
</svg>
