<svg xmlns="http://www.w3.org/2000/svg" width="275.973" height="221.249" viewBox="0 0 275.973 221.249">
  <g id="Group_11346" data-name="Group 11346" transform="translate(-49.513 -181.858)">
    <g id="Group_10911" data-name="Group 10911" transform="translate(0.013 103)">
      <path id="Path_5057" data-name="Path 5057" d="M45.286,254.19A199.448,199.448,0,0,1,33.066,208.8c-2.913-20.013-6.709-46.085,4.523-75.085,3.364-8.685,13.107-32.88,38.247-50.606C113.075,56.853,155.015,65.3,166.9,67.69c18.581,3.741,48.662,9.8,61.391,32.878,9.2,16.682,4.084,32.738,18.039,43.061,9.746,7.211,16.158,2.274,26.477,9.6,16,11.361,17.138,34.98,17.457,41.606,1.519,31.5-19.322,53.858-24.44,59.063l-220.542.291" transform="translate(32.627 43.81)" fill="#f6f6f6"/>
      <path id="Path_5058" data-name="Path 5058" d="M427.469,79.951h0V63.816a2.6,2.6,0,0,1,2.6,2.6V77.352a2.6,2.6,0,0,1-2.6,2.6" transform="translate(-183.383 44.174)" fill="#191245"/>
      <path id="Path_5059" data-name="Path 5059" d="M427.469,125.945h0V109.81a2.6,2.6,0,0,1,2.6,2.6v10.937a2.6,2.6,0,0,1-2.6,2.6" transform="translate(-183.383 19.177)" fill="#191245"/>
      <path id="Path_5060" data-name="Path 5060" d="M176.744,217.741h90.394A15.661,15.661,0,0,0,282.8,202.08V15.661A15.661,15.661,0,0,0,267.138,0H176.744a15.661,15.661,0,0,0-15.661,15.661V202.08a15.661,15.661,0,0,0,15.661,15.661" transform="translate(-38.605 78.858)" fill="#1f2737"/>
      <rect id="Rectangle_4418" data-name="Rectangle 4418" width="112.101" height="166.367" transform="translate(127.286 98.356)" fill="#f6f6f6"/>
      <path id="Path_5061" data-name="Path 5061" d="M286.818,19.19a3.489,3.489,0,1,1,3.489,3.489,3.488,3.488,0,0,1-3.489-3.489" transform="translate(-106.941 70.324)" fill="#313e57"/>
      <path id="Path_5062" data-name="Path 5062" d="M285.221,427.411h-7.329a7.119,7.119,0,1,0,0,14.238h7.329a7.119,7.119,0,1,0,0-14.238Z" transform="translate(-98.22 -153.437)" fill="none" stroke="#313e57" stroke-linecap="round" stroke-linejoin="round" stroke-width="4"/>
      <path id="Path_5063" data-name="Path 5063" d="M51.222,203.964l-.544-.308a5.68,5.68,0,0,0-.618-.317,2.985,2.985,0,0,1-2.45-.254,5.641,5.641,0,0,1-.81-.61,1.849,1.849,0,0,1-.33-.333.625.625,0,0,1-.124-.441,1.292,1.292,0,0,1,.325-.537.525.525,0,0,0,.1-.585.708.708,0,0,0-.345-.21,1.863,1.863,0,0,1-1.036-1.11,12.743,12.743,0,0,1,3.955,1.225.9.9,0,0,0,.183-.84,3.155,3.155,0,0,0-.272-.513.909.909,0,0,1-.145-.553.408.408,0,0,1,.382-.368c.215.01.352.228.451.42l.5.979a3.159,3.159,0,0,1,.353.913,1.142,1.142,0,0,0,.12.466.837.837,0,0,0,.34.251l1,.5c-.339.735-.7,1.486-1.036,2.222" transform="translate(24.272 -28.868)" fill="#f26d6d"/>
      <path id="Path_5064" data-name="Path 5064" d="M100.518,195.064s-9.005,9.542-15.988,13.467C77.86,212.28,57.756,199,57.756,199l1.118-2.384a108.487,108.487,0,0,1,21.256,5.959A115.539,115.539,0,0,0,93.951,189.1Z" transform="translate(17.552 -23.917)" fill="#ffc5ae"/>
      <rect id="Rectangle_4419" data-name="Rectangle 4419" width="0.913" height="3.75" transform="matrix(0.356, -0.935, 0.935, 0.356, 77.668, 292.371)" fill="#f6a19e"/>
      <path id="Path_5065" data-name="Path 5065" d="M59.157,465.357a2.175,2.175,0,0,1-1.136,2.983L48.975,464.9A2.8,2.8,0,0,1,50,463.08a2.756,2.756,0,0,1,1.672-.574L56,464.156a3.559,3.559,0,0,0,3.155,1.2" transform="translate(22.325 -172.51)" fill="#18bc9d"/>
      <path id="Path_5066" data-name="Path 5066" d="M50.471,462.29a2.745,2.745,0,0,0-3.543,1.589l-.159.417,1.386.528a3.807,3.807,0,0,1,.646-1.3,3.867,3.867,0,0,1,1.669-1.238" transform="translate(23.523 -172.295)" fill="#1ae5be"/>
      <path id="Path_5067" data-name="Path 5067" d="M65.825,462.911l-.56,1.773,2.356.846.827-1.735Z" transform="translate(13.471 -172.731)" fill="#f6a19e"/>
      <path id="Path_5068" data-name="Path 5068" d="M59.075,464.667l-.719.54" transform="translate(17.226 -173.685)" fill="none" stroke="#e1eef7" stroke-width="1.457"/>
      <path id="Path_5069" data-name="Path 5069" d="M60.972,465.526l-.667.613" transform="translate(16.167 -174.152)" fill="none" stroke="#e1eef7" stroke-width="1.457"/>
      <path id="Path_5070" data-name="Path 5070" d="M106.85,253.492s.04,12.286-1.934,16.7-14.109,24.3-14.109,24.3L68.534,347.447l-3.306-1.26,7.115-48.459S84.97,257.94,89.632,250.039s17.218,3.453,17.218,3.453" transform="translate(13.491 -55.517)" fill="#313e57"/>
      <rect id="Rectangle_4420" data-name="Rectangle 4420" width="3.507" height="0.854" transform="translate(109.483 293.01)" fill="#f6a19e"/>
      <path id="Path_5071" data-name="Path 5071" d="M129.4,469.1a2.034,2.034,0,0,1,0,2.986l-9.054-.009a2.621,2.621,0,0,1,.292-1.927,2.583,2.583,0,0,1,1.271-1.057l4.336,0a3.329,3.329,0,0,0,3.158,0" transform="translate(-16.427 -176.093)" fill="#18bc9d"/>
      <path id="Path_5072" data-name="Path 5072" d="M120.791,469.1a2.568,2.568,0,0,0-2.57,2.565v.418h1.387a3.558,3.558,0,0,1,.135-1.348,3.613,3.613,0,0,1,1.049-1.637" transform="translate(-15.309 -176.093)" fill="#1ae5be"/>
      <path id="Path_5073" data-name="Path 5073" d="M132.681,463.266l.72,2.825,2.491-.115-.453-2.209Z" transform="translate(-23.169 -172.924)" fill="#f6a19e"/>
      <path id="Path_5074" data-name="Path 5074" d="M128.452,469.31l-.45.711" transform="translate(-20.626 -176.208)" fill="none" stroke="#e1eef7" stroke-width="1.363"/>
      <path id="Path_5075" data-name="Path 5075" d="M130.426,469.451l-.38.757" transform="translate(-21.737 -176.285)" fill="none" stroke="#e1eef7" stroke-width="1.363"/>
      <path id="Path_5076" data-name="Path 5076" d="M123.336,254.916s1.17,3.507-.11,9.755c-1.841,8.991-18.134,32.127-18.134,32.127l8.433,49.327-4.31,1.166L92.069,301.674a19,19,0,0,1-.579-11.565c2.975-11.2,9.4-34.626,11.682-36.923l.729-6.653Z" transform="translate(-0.436 -55.131)" fill="#1f2737"/>
      <path id="Path_5077" data-name="Path 5077" d="M47.931,198.328a1.082,1.082,0,0,0,.923-1.645l-4.3-7.063a1.082,1.082,0,1,0-1.848,1.125l4.3,7.063a1.082,1.082,0,0,0,.925.52" transform="translate(25.819 -23.917)" fill="#1f2737"/>
      <path id="Path_5078" data-name="Path 5078" d="M45.75,196.855a12.445,12.445,0,0,1,1.129,1.132c1.391,1.586,1.905,3,2.347,2.882.527-.137.182-2.242.706-2.367.414-.1,1.035,1.123,1.275,1.69a3.6,3.6,0,0,1,.415,2.3l.745.67-1.7,1.788-1.218-1.116A6.215,6.215,0,0,1,44.7,197.3a.635.635,0,0,1,1.052-.45" transform="translate(24.654 -28.046)" fill="#fb9c98"/>
      <path id="Path_5079" data-name="Path 5079" d="M129.977,156.212c-.09,1.656.642,3.042,1.633,3.1s1.868-1.246,1.957-2.9-.641-3.042-1.633-3.1-1.867,1.246-1.957,2.9" transform="translate(-21.695 -4.464)" fill="#f95f6a"/>
      <path id="Path_5080" data-name="Path 5080" d="M94.314,177.484a2.487,2.487,0,0,1,3.23,2.468q-.025.876-.1,1.77c-.912,10.841-7.2,19.127-12.429,24.318a7.665,7.665,0,0,1-9.122,1.28q-2.781-1.547-5.663-3.3a160.728,160.728,0,0,1-13.995-9.281q.343-.493.69-.987.71-1.013,1.421-2.011,4.942,2.4,10.265,4.777,5.972,2.653,11.666,4.916c2.084-4.875,3.605-8.53,4.445-10.562,0,0,3.656-10.856,8.727-13.063.293-.127.582-.236.865-.328" transform="translate(18.379 -17.537)" fill="#f9e0d2"/>
      <path id="Path_5081" data-name="Path 5081" d="M130.847,169.235c.178-.218-3-4.371-3-4.371l-3.834,2.31,2.018,5.451a9.12,9.12,0,0,0,4.818-3.39" transform="translate(-18.457 -10.745)" fill="#f6a19e"/>
      <path id="Path_5082" data-name="Path 5082" d="M128.626,166.037c-.058.18-.123.356-.2.526a6.711,6.711,0,0,1-3.41,3.329l-1.006-2.718,3.834-2.31s.346.51.78,1.173" transform="translate(-18.457 -10.745)" fill="#f26d6d"/>
      <path id="Path_5083" data-name="Path 5083" d="M119.554,148.715a5.925,5.925,0,0,0-3.263,2.526c-1.431,2.448-1.046,6.552,1.5,7.779,2.44,1.174,5.779-.81,6.916-3.41,1.008-2.3.5-5.575-1.526-6.737a4.734,4.734,0,0,0-3.632-.158" transform="translate(-13.812 -1.807)" fill="#f6a19e"/>
      <path id="Path_5084" data-name="Path 5084" d="M125.786,174.1s12.3.826,10.544,41.26a41.483,41.483,0,0,1-18.29-.606l-3.3-.8.8-23.821A18.152,18.152,0,0,1,125.786,174.1" transform="translate(-13.418 -15.765)" fill="#f9e0d2"/>
      <path id="Path_5085" data-name="Path 5085" d="M120.82,150.417c-.9-.74.32-2.441-.712-3.679-1.123-1.348-3.27-.182-5.188-1.388-.905-.569-1.9-1.756-2.291-4.476,2.469-1.474,3.945-1.38,4.842-1.005,1.128.471,1.172,1.316,2.548,1.918,1.746.764,2.624-.181,4.014.415a4.7,4.7,0,0,1,2.357,5.469c-.9,2.618-4.482,3.646-5.569,2.747" transform="translate(-12.271 2.968)" fill="#18bc9d"/>
      <path id="Path_5086" data-name="Path 5086" d="M131.985,160.794a1.2,1.2,0,1,1,1.06,1.323,1.2,1.2,0,0,1-1.06-1.323" transform="translate(-22.787 -7.953)" fill="#f6a19e"/>
      <rect id="Rectangle_4421" data-name="Rectangle 4421" width="10.615" height="0.793" transform="translate(102.626 295.677)" fill="#d3d5fc"/>
      <rect id="Rectangle_4422" data-name="Rectangle 4422" width="0.871" height="11.349" transform="translate(69.826 292.371) rotate(-69.151)" fill="#313e57"/>
      <path id="Path_5087" data-name="Path 5087" d="M115.356,229.052s6.995-4.594,10.353-11.788" transform="translate(-13.753 -39.224)" fill="none" stroke="#ffc5ae" stroke-linecap="round" stroke-width="3.705"/>
      <path id="Path_5090" data-name="Path 5090" d="M324.133,126.294H270.3c-1.069,0-1.935-.583-1.935-1.3s.866-1.3,1.935-1.3h53.838c1.069,0,1.935.583,1.935,1.3s-.866,1.3-1.935,1.3" transform="translate(-96.909 12.31)" fill="#1ae5be"/>
      <path id="Path_5091" data-name="Path 5091" d="M288.544,145.167H270.476c-1.069,0-1.935-.625-1.935-1.4s.866-1.4,1.935-1.4h18.068c1.069,0,1.935.625,1.935,1.4s-.866,1.4-1.935,1.4" transform="translate(-97.007 -1.374)" fill="#ccf8ef"/>
      <path id="Path_5092" data-name="Path 5092" d="M324.133,203.581H270.3c-1.069,0-1.935-.583-1.935-1.3s.866-1.3,1.935-1.3h53.838c1.069,0,1.935.583,1.935,1.3s-.866,1.3-1.935,1.3" transform="translate(-96.909 -31.977)" fill="#1ae5be"/>
      <path id="Path_5093" data-name="Path 5093" d="M288.544,222.454H270.476c-1.069,0-1.935-.625-1.935-1.4s.866-1.4,1.935-1.4h18.068c1.069,0,1.935.625,1.935,1.4s-.866,1.4-1.935,1.4" transform="translate(-97.007 -45.661)" fill="#ccf8ef"/>
      <path id="Path_5094" data-name="Path 5094" d="M324.133,272H270.3c-1.069,0-1.935-.583-1.935-1.3s.866-1.3,1.935-1.3h53.838c1.069,0,1.935.583,1.935,1.3s-.866,1.3-1.935,1.3" transform="translate(-96.909 -67.393)" fill="#1ae5be"/>
      <path id="Path_5095" data-name="Path 5095" d="M288.544,290.87H270.476c-1.069,0-1.935-.625-1.935-1.4s.866-1.4,1.935-1.4h18.068c1.069,0,1.935.625,1.935,1.4s-.866,1.4-1.935,1.4" transform="translate(-97.007 -81.077)" fill="#ccf8ef"/>
      <path id="Path_5096" data-name="Path 5096" d="M324.133,341.032H270.3c-1.069,0-1.935-.583-1.935-1.3s.866-1.3,1.935-1.3h53.838c1.069,0,1.935.583,1.935,1.3s-.866,1.3-1.935,1.3" transform="translate(-96.909 -103.428)" fill="#1ae5be"/>
      <path id="Path_5097" data-name="Path 5097" d="M288.544,359.9H270.476c-1.069,0-1.935-.625-1.935-1.4s.866-1.4,1.935-1.4h18.068c1.069,0,1.935.625,1.935,1.4s-.866,1.4-1.935,1.4" transform="translate(-97.007 -117.112)" fill="#ccf8ef"/>
      <path id="Path_5098" data-name="Path 5098" d="M208.12,125.012a9.24,9.24,0,1,0-9.239,9.239,9.239,9.239,0,0,0,9.239-9.239" transform="translate(-54.126 15.936)" fill="#c7f8ee"/>
      <path id="Path_5099" data-name="Path 5099" d="M200.723,121.758l4.181,4.384,9.239-11.324" transform="translate(-60.149 16.455)" fill="none" stroke="#1ae5be" stroke-linecap="round" stroke-linejoin="round" stroke-width="2"/>
      <path id="Path_5100" data-name="Path 5100" d="M208.12,202.3a9.24,9.24,0,1,0-9.239,9.239,9.239,9.239,0,0,0,9.239-9.239" transform="translate(-54.126 -26.069)" fill="#c7f8ee"/>
      <path id="Path_5101" data-name="Path 5101" d="M214.143,192.105,204.9,203.429l-4.181-4.384" transform="translate(-60.149 -25.55)" fill="none" stroke="#1ae5be" stroke-linecap="round" stroke-linejoin="round" stroke-width="2"/>
      <path id="Path_5102" data-name="Path 5102" d="M208.12,270.715a9.24,9.24,0,1,0-9.239,9.239,9.239,9.239,0,0,0,9.239-9.239" transform="translate(-54.126 -63.252)" fill="#c7f8ee"/>
      <path id="Path_5103" data-name="Path 5103" d="M208.12,339.751a9.24,9.24,0,1,0-9.239,9.239,9.239,9.239,0,0,0,9.239-9.239" transform="translate(-54.126 -100.773)" fill="#c7f8ee"/>
      <path id="Path_5104" data-name="Path 5104" d="M200.723,336.5l4.181,4.384,9.239-11.324" transform="translate(-60.149 -100.254)" fill="none" stroke="#1ae5be" stroke-linecap="round" stroke-linejoin="round" stroke-width="2"/>
      <path id="Path_5105" data-name="Path 5105" d="M200.723,269.568l4.181,4.384,9.239-11.324" transform="translate(-60.149 -63.878)" fill="none" stroke="#1ae5be" stroke-linecap="round" stroke-linejoin="round" stroke-width="2"/>
      <path id="Path_5114" data-name="Path 5114" d="M439.049,257.723H374.157a8.863,8.863,0,0,0-8.843,8.265l-3.971,58.768c2.863.411,5.708.732,8.624,1.017,7.161.561,14.182.983,21.344-.281,8.987-1.544,17.553-.7,26.4-1.825,3.37-.421,6.74-1.264,10.11-1.826,8.063-1.139,15.934-1.059,23.785-.888l-3.714-54.965a8.863,8.863,0,0,0-8.843-8.265" transform="translate(-147.445 -61.213)" fill="#f6f6f6"/>
      <path id="Path_5115" data-name="Path 5115" d="M485.177,266.08a8.863,8.863,0,0,0-7.683-8.188l-47.547,58.393,22.354,2.367,33.636-41.309Z" transform="translate(-184.73 -61.305)" fill="rgba(31,39,55,0.1)"/>
      <path id="Path_5116" data-name="Path 5116" d="M462.778,257.723H453.9L412.66,308.37,418,312.717Z" transform="translate(-175.335 -61.213)" fill="rgba(49,62,87,0.1)"/>
      <path id="Path_5117" data-name="Path 5117" d="M362.153,454.431H360.19a6.019,6.019,0,0,1-6.019-6.019V435.339h14v13.073a6.019,6.019,0,0,1-6.019,6.019" transform="translate(-143.547 -157.745)" fill="#313e57"/>
      <path id="Path_5118" data-name="Path 5118" d="M543.847,454.431h-1.963a6.019,6.019,0,0,1-6.019-6.019V435.339h14v13.073a6.019,6.019,0,0,1-6.019,6.019" transform="translate(-242.296 -157.745)" fill="#313e57"/>
      <path id="Path_5119" data-name="Path 5119" d="M437.037,254.238H372.145a10.453,10.453,0,0,0-10.43,9.749l-3.962,58.629q1.585.247,3.159.456l3.978-58.87a7.292,7.292,0,0,1,7.255-6.781h64.892a7.292,7.292,0,0,1,7.255,6.781l3.7,54.823q1.6.031,3.194.068l-3.723-55.106a10.482,10.482,0,0,0-10.43-9.749" transform="translate(-145.494 -59.319)" fill="#1ae5be"/>
      <path id="Path_5120" data-name="Path 5120" d="M493.848,254.238H462.283q.112,1.586.218,3.182h31.347A7.292,7.292,0,0,1,501.1,264.2l3.7,54.823q1.6.031,3.194.068l-3.723-55.106a10.482,10.482,0,0,0-10.43-9.749" transform="translate(-202.305 -59.319)" fill="#18bc9d"/>
      <path id="Path_5121" data-name="Path 5121" d="M446.289,441.708H341.446a3.423,3.423,0,0,1-3.423-3.422v-4.109H449.712v4.109a3.422,3.422,0,0,1-3.422,3.422" transform="translate(-134.77 -157.114)" fill="#18bc9d"/>
      <path id="Path_5122" data-name="Path 5122" d="M444.621,420.2H340.082a4.848,4.848,0,0,1-4.848-4.848V405.134H449.469v10.214a4.847,4.847,0,0,1-4.848,4.848" transform="translate(-133.254 -141.329)" fill="#1ae5be"/>
      <path id="Path_5123" data-name="Path 5123" d="M449.47,372.176H335.235a27.683,27.683,0,0,1,27.684-27.684h58.867A27.684,27.684,0,0,1,449.47,372.176Z" transform="translate(-133.255 -108.371)" fill="#1f2737"/>
      <path id="Path_5124" data-name="Path 5124" d="M521.125,344.492H494.3a93.671,93.671,0,0,1,4.528,27.684h37.091V359.288a14.8,14.8,0,0,0-14.8-14.8" transform="translate(-219.707 -108.371)" fill="#313e57"/>
      <path id="Path_5125" data-name="Path 5125" d="M355.857,366.363a7,7,0,1,0-7,7,7,7,0,0,0,7-7" transform="translate(-136.853 -116.453)" fill="#eee9ff"/>
      <path id="Path_5126" data-name="Path 5126" d="M355.857,366.363a7,7,0,1,0-7,7,7,7,0,0,0,7-7" transform="translate(-136.853 -116.453)" fill="#ff992d"/>
      <path id="Path_5127" data-name="Path 5127" d="M508.114,420.2H541.25a2.178,2.178,0,0,0,2.178-2.178V405.134H509.121a96.6,96.6,0,0,1-1.007,15.062" transform="translate(-227.213 -141.329)" fill="#5decd1"/>
      <rect id="Rectangle_4424" data-name="Rectangle 4424" width="68.944" height="2.015" transform="translate(224.626 267.517)" fill="#191245"/>
      <rect id="Rectangle_4425" data-name="Rectangle 4425" width="68.944" height="2.015" transform="translate(224.626 270.699)" fill="#191245"/>
      <rect id="Rectangle_4426" data-name="Rectangle 4426" width="68.944" height="2.015" transform="translate(224.626 273.881)" fill="#191245"/>
      <rect id="Rectangle_4427" data-name="Rectangle 4427" width="14.001" height="5.516" transform="translate(205.003 267.517)" fill="#ffcb49"/>
      <rect id="Rectangle_4428" data-name="Rectangle 4428" width="14.001" height="5.516" transform="translate(299.191 267.517)" fill="#ffcb49"/>
      <rect id="Rectangle_4429" data-name="Rectangle 4429" width="11.597" height="5.516" transform="translate(207.406 267.517)" fill="#ff992d"/>
      <rect id="Rectangle_4430" data-name="Rectangle 4430" width="11.968" height="5.516" transform="translate(301.224 267.517)" fill="#ff992d"/>
      <path id="Path_5128" data-name="Path 5128" d="M342.9,368.92a7,7,0,0,0,5.825,4.432l7.154-9.683a7,7,0,0,0-5.95-4.263Z" transform="translate(-137.419 -116.476)" fill="#ffcb49"/>
      <path id="Path_5129" data-name="Path 5129" d="M562.313,366.363a7,7,0,1,0-7,7,7,7,0,0,0,7-7" transform="translate(-249.061 -116.453)" fill="#ff992d"/>
      <path id="Path_5130" data-name="Path 5130" d="M549.352,368.92a7,7,0,0,0,5.825,4.432l7.154-9.683a7,7,0,0,0-5.95-4.263Z" transform="translate(-249.626 -116.476)" fill="#ffcb49"/>
      <path id="Path_5131" data-name="Path 5131" d="M569.4,333.922h-3.43a3.544,3.544,0,1,1,0-7.088h3.43a3.544,3.544,0,1,1,0,7.088" transform="translate(-256.734 -98.774)" fill="#1f2737"/>
      <rect id="Rectangle_4431" data-name="Rectangle 4431" width="4.156" height="2.759" transform="matrix(0.66, -0.752, 0.752, 0.66, 303.267, 235.734)" fill="#1f2737"/>
      <path id="Path_5132" data-name="Path 5132" d="M339.792,333.922h3.43a3.544,3.544,0,1,0,0-7.088h-3.43a3.544,3.544,0,1,0,0,7.088" transform="translate(-133.806 -98.774)" fill="#1f2737"/>
      <rect id="Rectangle_4432" data-name="Rectangle 4432" width="2.759" height="4.156" transform="matrix(0.752, -0.66, 0.66, 0.752, 210.574, 234.431)" fill="#1f2737"/>
      <line id="Line_183" data-name="Line 183" x2="270.973" transform="translate(52 297.607)" fill="none" stroke="#1f2737" stroke-linecap="round" stroke-width="5"/>
    </g>
  </g>
</svg>
