<svg xmlns="http://www.w3.org/2000/svg" width="27.42" height="27.419" viewBox="0 0 27.42 27.419">
  <g id="Group_11357" data-name="Group 11357" transform="translate(-164.46 -3213)">
    <g id="Group_46" data-name="Group 46" transform="translate(164.46 3213)">
      <path id="Path_44" data-name="Path 44" d="M145.03,230.366a13.71,13.71,0,1,1,13.71-13.709A13.725,13.725,0,0,1,145.03,230.366Zm0-25.946a12.237,12.237,0,1,0,12.237,12.237A12.251,12.251,0,0,0,145.03,204.42Z" transform="translate(-131.32 -202.947)" fill="#555fde"/>
    </g>
    <g id="Group_47" data-name="Group 47" transform="translate(174.337 3218.492)">
      <path id="Path_45" data-name="Path 45" d="M152.666,222.163v7.946a.207.207,0,0,0,.207.207h2.951a.207.207,0,0,0,.207-.207v-8.075h2.139a.207.207,0,0,0,.206-.189l.206-2.433a.207.207,0,0,0-.206-.225h-2.345v-1.726a.733.733,0,0,1,.732-.733h1.649a.207.207,0,0,0,.207-.207v-2.433a.207.207,0,0,0-.207-.207h-2.786a2.96,2.96,0,0,0-2.96,2.96v2.345h-1.475a.207.207,0,0,0-.207.207v2.433a.207.207,0,0,0,.207.207h1.475Z" transform="translate(-150.984 -213.881)" fill="#555fde" fill-rule="evenodd"/>
    </g>
  </g>
</svg>
