<svg xmlns="http://www.w3.org/2000/svg" xmlns:xlink="http://www.w3.org/1999/xlink" width="118" height="118" viewBox="0 0 118 118">
  <defs>
    <filter id="Rectangle_4416" x="0" y="0" width="118" height="118" filterUnits="userSpaceOnUse">
      <feOffset dy="3" input="SourceAlpha"/>
      <feGaussianBlur stdDeviation="8" result="blur"/>
      <feFlood flood-opacity="0.161"/>
      <feComposite operator="in" in2="blur"/>
      <feComposite in="SourceGraphic"/>
    </filter>
  </defs>
  <g id="Group_11352" data-name="Group 11352" transform="translate(-209 -817)">
    <g id="Group_11340" data-name="Group 11340" transform="translate(-6)">
      <g transform="matrix(1, 0, 0, 1, 215, 817)" filter="url(#Rectangle_4416)">
        <rect id="Rectangle_4416-2" data-name="Rectangle 4416" width="70" height="70" rx="35" transform="translate(24 21)" fill="#fff"/>
      </g>
      <path id="Path_333" data-name="Path 333" d="M11.771,191.477l-7.019,3.271a3.831,3.831,0,0,0-2.2,3.471v11.327H16.314" transform="translate(253.451 680.174)" fill="rgba(26,229,190,0.2)" stroke="#1f2737" stroke-width="1.5"/>
      <line id="Line_8" data-name="Line 8" y2="9.177" transform="translate(261.03 881.002)" fill="none" stroke="#1f2737" stroke-width="1.5"/>
      <path id="Path_334" data-name="Path 334" d="M15.46,174.115c1.257.478,9.618,1.138,11.664-.66,0,0,.12-.092.3-.257a10.912,10.912,0,0,0,1.376-1.532.765.765,0,0,0-.724-1.211,20.7,20.7,0,0,1-5.258-.23,20.966,20.966,0,0,0-2.386-.174,16.536,16.536,0,0,0-4.176.569,4.206,4.206,0,0,0-3.175,4.019V180.9a4.047,4.047,0,0,0,2.933,3.9,14.472,14.472,0,0,0,7.89,0,4.055,4.055,0,0,0,2.943-3.9v-7.026" transform="translate(250.24 684.95)" fill="rgba(26,229,190,0.2)" stroke="#1f2737" stroke-width="1.5"/>
      <path id="Path_335" data-name="Path 335" d="M14.041,194.95l2.294,10.706,2.242.9" transform="translate(250.047 679.934)" fill="none" stroke="#1f2737" stroke-width="1.5"/>
      <path id="Path_336" data-name="Path 336" d="M22.536,193.976l-1.412-.941-2.294,1.53v2.294l1.529,1.529" transform="translate(249.083 680.32)" fill="none" stroke="#1f2737" stroke-width="1.5"/>
      <path id="Path_337" data-name="Path 337" d="M37.383,207.757v1.529a.767.767,0,0,0,.765.765h3.058a.762.762,0,0,0,.765-.765v-6.569a2.611,2.611,0,0,0-.765-1.843L39.825,195.7a2.294,2.294,0,0,0-2.217-1.7H27.981a2.294,2.294,0,0,0-2.217,1.7l-1.381,5.179a2.611,2.611,0,0,0-.765,1.843v6.569a.765.765,0,0,0,.765.765h3.058a.767.767,0,0,0,.765-.765v-1.529Z" transform="translate(248.118 680.127)" fill="none" stroke="#1f2737" stroke-width="1.5"/>
      <path id="Path_338" data-name="Path 338" d="M30.507,205.1a1.53,1.53,0,1,1-1.529-1.529A1.529,1.529,0,0,1,30.507,205.1Z" transform="translate(247.346 678.198)" fill="rgba(26,229,190,0.2)" stroke="#1f2737" stroke-width="1.5"/>
      <path id="Path_339" data-name="Path 339" d="M42,205.1a1.53,1.53,0,1,1-1.529-1.529A1.529,1.529,0,0,1,42,205.1Z" transform="translate(245.031 678.198)" fill="rgba(26,229,190,0.2)" stroke="#1f2737" stroke-width="1.5"/>
    </g>
  </g>
</svg>
