<svg xmlns="http://www.w3.org/2000/svg" xmlns:xlink="http://www.w3.org/1999/xlink" width="118" height="118" viewBox="0 0 118 118">
  <defs>
    <filter id="Rectangle_4416" x="0" y="0" width="118" height="118" filterUnits="userSpaceOnUse">
      <feOffset dy="3" input="SourceAlpha"/>
      <feGaussianBlur stdDeviation="8" result="blur"/>
      <feFlood flood-opacity="0.161"/>
      <feComposite operator="in" in2="blur"/>
      <feComposite in="SourceGraphic"/>
    </filter>
  </defs>
  <g id="Group_11347" data-name="Group 11347" transform="translate(-209 -563)">
    <g id="Group_11338" data-name="Group 11338" transform="translate(-6)">
      <g transform="matrix(1, 0, 0, 1, 215, 563)" filter="url(#Rectangle_4416)">
        <rect id="Rectangle_4416-2" data-name="Rectangle 4416" width="70" height="70" rx="35" transform="translate(24 21)" fill="#fff"/>
      </g>
      <circle id="Ellipse_281" data-name="Ellipse 281" cx="8.5" cy="8.5" r="8.5" transform="translate(271.538 603)" fill="rgba(26,229,190,0.2)"/>
      <path id="Path_328" data-name="Path 328" d="M265.825,113.506a2.831,2.831,0,1,1-2.831-2.831A2.831,2.831,0,0,1,265.825,113.506Z" transform="translate(0.376 511.093)" fill="rgba(26,229,190,0.2)" stroke="#1f2737" stroke-width="1.5"/>
      <path id="Path_329" data-name="Path 329" d="M286.518,114.879v3.539a1.415,1.415,0,0,1-1.415,1.416h-4.247a1.42,1.42,0,0,1-1.416-1.416v-2.831H262.452v2.831a1.42,1.42,0,0,1-1.415,1.416H256.79a1.415,1.415,0,0,1-1.415-1.416V105.557a4.837,4.837,0,0,1,1.415-3.418l2.276-8.517a2.831,2.831,0,0,1,2.735-2.1h6.313" transform="translate(1.625 516.09)" fill="none" stroke="#1f2737" stroke-width="1.5"/>
      <path id="Path_330" data-name="Path 330" d="M269.906,103.388H262.24l1.9-7.078h4.353" transform="translate(-0.166 514.841)" fill="none" stroke="#1f2737" stroke-width="1.5"/>
      <path id="Path_331" data-name="Path 331" d="M293.388,108.787l-4.289-7.429a8.77,8.77,0,1,0-3.1,1.714l4.321,7.484Z" transform="translate(-3.371 517.59)" fill="none" stroke="#1f2737" stroke-width="1.5"/>
      <path id="Path_332" data-name="Path 332" d="M279.316,98.433l2.123-2.123,2.123,2.123,2.123-2.123,2.123,2.123,2.123-2.123" transform="translate(-4.622 514.841)" fill="none" stroke="#1f2737" stroke-width="1.5"/>
    </g>
  </g>
</svg>
