<svg xmlns="http://www.w3.org/2000/svg" xmlns:xlink="http://www.w3.org/1999/xlink" width="118" height="118" viewBox="0 0 118 118">
  <defs>
    <filter id="Rectangle_4416" x="0" y="0" width="118" height="118" filterUnits="userSpaceOnUse">
      <feOffset dy="3" input="SourceAlpha"/>
      <feGaussianBlur stdDeviation="8" result="blur"/>
      <feFlood flood-opacity="0.161"/>
      <feComposite operator="in" in2="blur"/>
      <feComposite in="SourceGraphic"/>
    </filter>
    <clipPath id="clip-path">
      <rect id="Rectangle_1476" data-name="Rectangle 1476" width="32" height="39" transform="translate(0.415 0.029)" fill="none" stroke="#1f2737" stroke-linecap="round" stroke-width="1.8"/>
    </clipPath>
  </defs>
  <g id="Group_11350" data-name="Group 11350" transform="translate(-209 -691)">
    <g id="Group_11339" data-name="Group 11339" transform="translate(-6)">
      <g transform="matrix(1, 0, 0, 1, 215, 691)" filter="url(#Rectangle_4416)">
        <rect id="Rectangle_4416-2" data-name="Rectangle 4416" width="70" height="70" rx="35" transform="translate(24 21)" fill="#fff"/>
      </g>
      <g id="Group_49" data-name="Group 49" transform="translate(257.585 727.971)">
        <g id="Group_48" data-name="Group 48" transform="translate(0 0)" clip-path="url(#clip-path)">
          <path id="Path_519" data-name="Path 519" d="M26.243,5h5.409V39.853H1V5H6.409" transform="translate(-0.098 -1.387)" fill="none" stroke="#1f2737" stroke-linecap="round" stroke-linejoin="round" stroke-width="1.8"/>
        </g>
      </g>
      <line id="Line_73" data-name="Line 73" x2="9" transform="translate(274 748)" fill="none" stroke="#1f2737" stroke-linecap="round" stroke-linejoin="round" stroke-width="1.5"/>
      <line id="Line_74" data-name="Line 74" x2="6" transform="translate(273 752)" fill="none" stroke="#1f2737" stroke-linecap="round" stroke-linejoin="round" stroke-width="1.5"/>
      <path id="Path_520" data-name="Path 520" d="M7,26.489l1.66,1.66L11.149,24" transform="translate(256.975 723.351)" fill="none" stroke="#1ae5be" stroke-linecap="round" stroke-linejoin="round" stroke-width="1.5"/>
      <line id="Line_75" data-name="Line 75" x2="9" transform="translate(274 756)" fill="none" stroke="rgba(26,229,190,0.2)" stroke-linecap="round" stroke-linejoin="round" stroke-width="1.5"/>
      <line id="Line_76" data-name="Line 76" x2="6" transform="translate(273 759)" fill="none" stroke="#1f2737" stroke-linecap="round" stroke-linejoin="round" stroke-width="1.5"/>
      <path id="Path_521" data-name="Path 521" d="M7,36.489l1.66,1.66L11.149,34" transform="translate(256.975 721.65)" fill="none" stroke="#1ae5be" stroke-linecap="round" stroke-linejoin="round" stroke-width="1.5"/>
      <line id="Line_77" data-name="Line 77" x2="9" transform="translate(274 740)" fill="none" stroke="#1f2737" stroke-linecap="round" stroke-linejoin="round" stroke-width="1.5"/>
      <line id="Line_78" data-name="Line 78" x2="6" transform="translate(273 744)" fill="none" stroke="rgba(26,229,190,0.2)" stroke-linecap="round" stroke-linejoin="round" stroke-width="1.5"/>
      <path id="Path_522" data-name="Path 522" d="M7,17.489l1.66,1.66L11.149,15" transform="translate(256.975 724.883)" fill="none" stroke="#1ae5be" stroke-linecap="round" stroke-linejoin="round" stroke-width="1.5"/>
      <path id="Path_523" data-name="Path 523" d="M19.917,3.489A2.6,2.6,0,0,0,17.212,1a2.6,2.6,0,0,0-2.7,2.489H11.8A1.735,1.735,0,0,0,10,5.149V7.639H24.424V5.149a1.735,1.735,0,0,0-1.8-1.66Z" transform="translate(256.6 727.265)" fill="rgba(26,229,190,0.2)" stroke="#1f2737" stroke-linecap="round" stroke-linejoin="round" stroke-width="1.2"/>
    </g>
  </g>
</svg>
