<svg xmlns="http://www.w3.org/2000/svg" xmlns:xlink="http://www.w3.org/1999/xlink" width="118" height="118" viewBox="0 0 118 118">
  <defs>
    <filter id="Rectangle_4417" x="0" y="0" width="118" height="118" filterUnits="userSpaceOnUse">
      <feOffset dy="3" input="SourceAlpha"/>
      <feGaussianBlur stdDeviation="8" result="blur"/>
      <feFlood flood-opacity="0.161"/>
      <feComposite operator="in" in2="blur"/>
      <feComposite in="SourceGraphic"/>
    </filter>
  </defs>
  <g id="Group_11349" data-name="Group 11349" transform="translate(-49 -691)">
    <g id="Group_11342" data-name="Group 11342">
      <g transform="matrix(1, 0, 0, 1, 49, 691)" filter="url(#Rectangle_4417)">
        <rect id="Rectangle_4417-2" data-name="Rectangle 4417" width="70" height="70" rx="35" transform="translate(24 21)" fill="#fff"/>
      </g>
      <path id="Path_516" data-name="Path 516" d="M112.6,195.825h9.665a1.61,1.61,0,0,0,1.611-1.611V171.662a1.61,1.61,0,0,0-1.611-1.611H88.436a1.61,1.61,0,0,0-1.611,1.611v22.553a1.61,1.61,0,0,0,1.611,1.611H98.1v7.249H94.074a1.611,1.611,0,0,0-1.611,1.611V207.1h25.775v-2.416a1.611,1.611,0,0,0-1.611-1.611H112.6Z" transform="translate(2.175 557.949)" fill="none" stroke="#1f2737" stroke-width="1.5"/>
      <rect id="Rectangle_1475" data-name="Rectangle 1475" width="28.996" height="17.72" transform="translate(93.027 732.027)" fill="none" stroke="#1f2737" stroke-width="1.5"/>
      <path id="Path_517" data-name="Path 517" d="M110.091,187.682a2.014,2.014,0,1,1-4.027,0h-3.222a2.012,2.012,0,1,1-4.024,0H96.4v-4.027a.808.808,0,0,1,.806-.806h2.078l1.385-2.416a1.617,1.617,0,0,1,1.4-.806h4.769a1.593,1.593,0,0,1,1.393.806l1.394,2.416H111.7a.808.808,0,0,1,.806.806v4.027Z" transform="translate(0.653 556.427)" fill="rgba(26,229,190,0.2)" stroke="#1f2737" stroke-width="1.5"/>
      <line id="Line_70" data-name="Line 70" x2="2.416" transform="translate(116.385 736.86)" fill="none" stroke="#1f2737" stroke-width="1.5"/>
      <line id="Line_71" data-name="Line 71" x2="2.416" transform="translate(116.385 740.887)" fill="none" stroke="#1f2737" stroke-width="1.5"/>
      <line id="Line_72" data-name="Line 72" x2="2.416" transform="translate(116.385 744.914)" fill="none" stroke="#1f2737" stroke-width="1.5"/>
    </g>
  </g>
</svg>
