<svg xmlns="http://www.w3.org/2000/svg" xmlns:xlink="http://www.w3.org/1999/xlink" width="118" height="118" viewBox="0 0 118 118">
  <defs>
    <filter id="Rectangle_4417" x="0" y="0" width="118" height="118" filterUnits="userSpaceOnUse">
      <feOffset dy="3" input="SourceAlpha"/>
      <feGaussianBlur stdDeviation="8" result="blur"/>
      <feFlood flood-opacity="0.161"/>
      <feComposite operator="in" in2="blur"/>
      <feComposite in="SourceGraphic"/>
    </filter>
  </defs>
  <g id="Group_11351" data-name="Group 11351" transform="translate(-49 -817)">
    <g id="Group_11341" data-name="Group 11341">
      <g transform="matrix(1, 0, 0, 1, 49, 817)" filter="url(#Rectangle_4417)">
        <rect id="Rectangle_4417-2" data-name="Rectangle 4417" width="70" height="70" rx="35" transform="translate(24 21)" fill="#fff"/>
      </g>
      <path id="Path_518" data-name="Path 518" d="M482.388,88h28.571v6.9s-10.643-1.283-11.66.682-1.92,4.13-1.92,4.13l-2.431-1.123,1.789-3.689V92.651l-3.208-1.123h-2.887l.113,4.962-3.3,1.719-.825-6-5.789-1.544Z" transform="translate(-388.844 770)" fill="rgba(26,229,190,0.2)"/>
      <path id="Path_322" data-name="Path 322" d="M455.881,85.775H427.434a1.6,1.6,0,1,0,0,3.2h3.518" transform="translate(-333.661 772.225)" fill="none" stroke="#1f2737" stroke-width="1.5"/>
      <path id="Path_323" data-name="Path 323" d="M440.847,85.775A6.392,6.392,0,0,0,435.733,96" transform="translate(-336.527 772.225)" fill="none" stroke="#1f2737" stroke-width="1.5"/>
      <path id="Path_324" data-name="Path 324" d="M460.339,94.4H448.8a6.393,6.393,0,0,1-2.282,4.276A1.6,1.6,0,0,1,443.988,98a1.569,1.569,0,0,1,.473-1.764,3.2,3.2,0,1,0-5.165-3.081,3.284,3.284,0,0,0,.007,1.228" transform="translate(-338.119 770.633)" fill="none" stroke="#1f2737" stroke-width="1.5"/>
      <path id="Path_325" data-name="Path 325" d="M441.49,107.8h2.557a1.278,1.278,0,0,1,1.278,1.278v5.114a1.278,1.278,0,0,1-1.278,1.278h-8.31a1.278,1.278,0,0,1-1.278-1.278V109.08a1.278,1.278,0,0,1,1.278-1.278h2.557" transform="translate(-336.528 764.9)" fill="rgba(26,229,190,0.2)" stroke="#1f2737" stroke-width="1.5"/>
      <path id="Path_326" data-name="Path 326" d="M443.082,119.294h-3.835v5.113a1.918,1.918,0,1,0,3.835,0Z" transform="translate(-338.12 761.078)" fill="rgba(26,229,190,0.2)" stroke="#1f2737" stroke-width="1.5"/>
      <path id="Path_327" data-name="Path 327" d="M441.161,105.257c-1.059,0-1.918-1.574-1.918-3.515s.858-3.515,1.918-3.515a1.1,1.1,0,0,1,.35.058" transform="translate(-338.119 768.084)" fill="none" stroke="#1f2737" stroke-width="1.5"/>
      <rect id="Rectangle_1471" data-name="Rectangle 1471" width="0.639" height="0.639" transform="translate(101.126 876.537)" fill="none" stroke="#1f2737" stroke-width="1.5"/>
      <rect id="Rectangle_1472" data-name="Rectangle 1472" width="0.639" height="0.639" transform="translate(104.962 876.537)" fill="none" stroke="#1f2737" stroke-width="1.5"/>
    </g>
  </g>
</svg>
