<svg xmlns="http://www.w3.org/2000/svg" width="27.373" height="27.373" viewBox="0 0 27.373 27.373">
  <g id="Group_11356" data-name="Group 11356" transform="translate(-211.627 -3213.211)">
    <g id="Group_51" data-name="Group 51" transform="translate(218.796 3223.75)">
      <g id="Group_50" data-name="Group 50">
        <path id="Path_47" data-name="Path 47" d="M159.893,293.264v5.11a.228.228,0,0,1-.229.229h-2.638a.228.228,0,0,1-.229-.229v-4.752c0-1.251-.447-2.1-1.568-2.1a1.693,1.693,0,0,0-1.587,1.132,2.11,2.11,0,0,0-.1.754v4.971a.229.229,0,0,1-.229.229h-2.637a.228.228,0,0,1-.229-.229c.006-1.266.033-7.407.006-8.85a.228.228,0,0,1,.229-.232h2.632a.229.229,0,0,1,.229.229v1.091c-.007.011-.015.021-.021.031h.021v-.031a3.074,3.074,0,0,1,2.79-1.538c2.036,0,3.563,1.331,3.563,4.19ZM145.867,298.6H148.5a.228.228,0,0,0,.229-.229v-8.852a.229.229,0,0,0-.229-.229h-2.638a.229.229,0,0,0-.229.229v8.852A.228.228,0,0,0,145.867,298.6Z" transform="translate(-145.638 -289.074)" fill="#555fde"/>
      </g>
    </g>
    <g id="Group_49" data-name="Group 49" transform="translate(211.627 3213.211)">
      <path id="Path_46" data-name="Path 46" d="M145.053,295.467a13.686,13.686,0,1,1,13.686-13.687A13.7,13.7,0,0,1,145.053,295.467Zm0-25.9a12.213,12.213,0,1,0,12.213,12.213A12.228,12.228,0,0,0,145.053,269.567Z" transform="translate(-131.366 -268.094)" fill="#555fde"/>
    </g>
    <g id="Group_53" data-name="Group 53" transform="translate(218.594 3219.471)">
      <circle id="Ellipse_9" data-name="Ellipse 9" cx="1.657" cy="1.657" r="1.657" fill="#555fde"/>
    </g>
  </g>
</svg>
