<svg xmlns="http://www.w3.org/2000/svg" width="113.4" height="31.8" viewBox="0 0 113.4 31.8">
  <g id="Group_11345" data-name="Group 11345" transform="translate(-32.6 -12.6)">
    <g id="Group_10905" data-name="Group 10905">
      <text id="careport" transform="translate(61 33)" fill="#1ae5be" font-size="19" font-family="Poppins-SemiBold, Poppins" font-weight="600"><tspan x="0" y="0">care</tspan><tspan y="0" fill="#1f2737">port</tspan></text>
      <g id="Group_59" data-name="Group 59" transform="translate(33 13)">
        <line id="Line_81" data-name="Line 81" x1="22" transform="translate(18.296 25)" fill="none" stroke="#1f2737" stroke-linecap="round" stroke-width="2.8"/>
        <g id="Group_58" data-name="Group 58" transform="translate(1 1)">
          <g id="Group_60" data-name="Group 60">
            <line id="Line_83" data-name="Line 83" x1="3" transform="translate(1.296 13.737)" fill="none" stroke="#1f2737" stroke-linecap="round" stroke-width="2.8"/>
            <path id="Path_533" data-name="Path 533" d="M6.7,25.043H5.557A4.829,4.829,0,0,1,1,19.982V17.451L2.139,14.92V12.389A2.414,2.414,0,0,1,4.417,9.858H6.7l5.248-5.1a12.908,12.908,0,0,1,9-3.757h6.017A12.837,12.837,0,0,1,35.5,4.328" transform="translate(-1 -1)" fill="none" stroke="#1f2737" stroke-linecap="round" stroke-width="2.8"/>
            <circle id="Ellipse_283" data-name="Ellipse 283" cx="5" cy="5" r="5" transform="translate(6.296 19)" fill="none" stroke="#1f2737" stroke-linecap="round" stroke-width="2.8"/>
          </g>
        </g>
      </g>
      <line id="Line_85" data-name="Line 85" x2="5" transform="translate(52 27)" fill="none" stroke="#1f2737" stroke-linecap="round" stroke-width="2"/>
      <line id="Line_86" data-name="Line 86" x2="2" transform="translate(46 27)" fill="none" stroke="#1f2737" stroke-linecap="round" stroke-width="2"/>
    </g>
  </g>
</svg>
