<svg xmlns="http://www.w3.org/2000/svg" xmlns:xlink="http://www.w3.org/1999/xlink" width="173.455" height="203.344" viewBox="0 0 173.455 203.344">
  <defs>
    <linearGradient id="linear-gradient" x1="0.5" x2="0.5" y2="1" gradientUnits="objectBoundingBox">
      <stop offset="0" stop-color="#fff"/>
      <stop offset="1" stop-color="#e3e3e3"/>
    </linearGradient>
    <filter id="Case" x="53.331" y="0" width="115.261" height="203.344" filterUnits="userSpaceOnUse">
      <feOffset input="SourceAlpha"/>
      <feGaussianBlur stdDeviation="5" result="blur"/>
      <feFlood flood-opacity="0.161"/>
      <feComposite operator="in" in2="blur"/>
      <feComposite in="SourceGraphic"/>
    </filter>
    <linearGradient id="linear-gradient-2" x1="0.5" x2="0.5" y2="1" gradientUnits="objectBoundingBox">
      <stop offset="0" stop-color="#f6f6f6"/>
      <stop offset="1" stop-color="#ececec"/>
    </linearGradient>
    <linearGradient id="linear-gradient-3" x1="0.5" x2="0.5" y2="1" gradientUnits="objectBoundingBox">
      <stop offset="0" stop-color="#fff"/>
      <stop offset="1" stop-color="#f3f3f3"/>
    </linearGradient>
    <linearGradient id="linear-gradient-4" x1="0.5" x2="0.5" y2="1" gradientUnits="objectBoundingBox">
      <stop offset="0" stop-color="#fff"/>
      <stop offset="1" stop-color="#e5e5e5"/>
    </linearGradient>
    <linearGradient id="linear-gradient-5" x1="1" y1="0.377" x2="0" y2="0.377" gradientUnits="objectBoundingBox">
      <stop offset="0" stop-color="#fff" stop-opacity="0"/>
      <stop offset="0.322" stop-color="#fdfdfd" stop-opacity="0"/>
      <stop offset="1" stop-color="#dadada"/>
    </linearGradient>
    <linearGradient id="linear-gradient-12" x1="0.5" x2="0.5" y2="1" gradientUnits="objectBoundingBox">
      <stop offset="0" stop-color="#f3f3f3"/>
      <stop offset="1" stop-color="#fff"/>
    </linearGradient>
  </defs>
  <g id="Group_11354" data-name="Group 11354" transform="translate(-101 -2310.654)">
    <path id="Intersection_6" data-name="Intersection 6" d="M25,1.347A65.892,65.892,0,0,0,1.3,11.326q-.654.442-1.3.9l2.731,3.958q.622-.443,1.254-.871a61.476,61.476,0,0,1,94.6,38.608,62.12,62.12,0,0,1,0,24.792,61.191,61.191,0,0,1-9.25,21.995,61.658,61.658,0,0,1-27.048,22.285,61.111,61.111,0,0,1-11.54,3.584,61.885,61.885,0,0,1-12.39,1.25q-1.571,0-3.139-.079c-.042,1.623-.079,3.231-.108,4.809q1.622.079,3.247.079a66.745,66.745,0,0,0,13.359-1.347,65.891,65.891,0,0,0,23.7-9.978A66.511,66.511,0,0,0,99.434,92.131,65.994,65.994,0,0,0,103.3,79.683a67,67,0,0,0,0-26.731,65.968,65.968,0,0,0-9.974-23.713A66.486,66.486,0,0,0,64.159,5.211,65.9,65.9,0,0,0,51.717,1.347,66.9,66.9,0,0,0,25,1.347Z" transform="translate(218.092 2478.643) rotate(180)" fill="#1ae5be"/>
    <circle id="Ellipse_482" data-name="Ellipse 482" cx="5.654" cy="5.654" r="5.654" transform="translate(263.147 2391.548)" fill="rgba(26,229,190,0.2)"/>
    <ellipse id="Ellipse_480" data-name="Ellipse 480" cx="5.654" cy="5.911" rx="5.654" ry="5.911" transform="translate(123.076 2312.047)" fill="#1ae5be"/>
    <ellipse id="Ellipse_481" data-name="Ellipse 481" cx="5.654" cy="5.911" rx="5.654" ry="5.911" transform="translate(101 2500.191)" fill="#1ae5be"/>
    <g id="Group_4094" data-name="Group 4094" transform="translate(168.455 2325.654)">
      <g transform="matrix(1, 0, 0, 1, -67.45, -15)" filter="url(#Case)">
        <path id="Case-2" data-name="Case" d="M11.489,0H73.772A11.489,11.489,0,0,1,85.261,11.489V161.854a11.489,11.489,0,0,1-11.489,11.489H11.489A11.489,11.489,0,0,1,0,161.854V11.489A11.489,11.489,0,0,1,11.489,0Z" transform="translate(68.33 15)" fill="url(#linear-gradient)"/>
      </g>
      <path id="Bezel" d="M9.473,0H72.562a9.473,9.473,0,0,1,9.473,9.473V160.645a9.473,9.473,0,0,1-9.473,9.473H9.473A9.473,9.473,0,0,1,0,160.645V9.473A9.473,9.473,0,0,1,9.473,0Z" transform="translate(2.489 1.613)" fill="url(#linear-gradient-2)"/>
      <path id="Glass" d="M8.958,0H72.272A8.934,8.934,0,0,1,81.23,8.911V160.4a8.935,8.935,0,0,1-8.958,8.911H8.958A8.935,8.935,0,0,1,0,160.4V8.911A8.934,8.934,0,0,1,8.958,0Z" transform="translate(2.892 2.016)" fill="url(#linear-gradient-3)"/>
      <g id="Button" transform="translate(85.874 40.38)">
        <g id="Group_39" data-name="Group 39" transform="translate(0 0)">
          <path id="Rectangle_21" data-name="Rectangle 21" d="M0,0H0A1.342,1.342,0,0,1,1.342,1.342V18.114A1.342,1.342,0,0,1,0,19.456H0a0,0,0,0,1,0,0V0A0,0,0,0,1,0,0Z" fill="url(#linear-gradient-4)"/>
          <path id="Rectangle_101" data-name="Rectangle 101" d="M0,0H0A1.342,1.342,0,0,1,1.342,1.342V18.114A1.342,1.342,0,0,1,0,19.456H0a0,0,0,0,1,0,0V0A0,0,0,0,1,0,0Z" fill="url(#linear-gradient-5)"/>
        </g>
      </g>
      <g id="Button-2" data-name="Button" transform="translate(0 36.355)">
        <path id="Rectangle_28" data-name="Rectangle 28" d="M1.342,0h0a0,0,0,0,1,0,0V12.076a0,0,0,0,1,0,0h0A1.342,1.342,0,0,1,0,10.734V1.342A1.342,1.342,0,0,1,1.342,0Z" transform="translate(0 0)" fill="url(#linear-gradient-4)"/>
        <path id="Rectangle_103" data-name="Rectangle 103" d="M0,0H0A1.342,1.342,0,0,1,1.342,1.342v9.392A1.342,1.342,0,0,1,0,12.076H0a0,0,0,0,1,0,0V0A0,0,0,0,1,0,0Z" transform="translate(1.342 12.076) rotate(180)" fill="url(#linear-gradient-5)"/>
      </g>
      <g id="Button-3" data-name="Button" transform="translate(0 52.456)">
        <path id="Rectangle_29" data-name="Rectangle 29" d="M1.342,0h0a0,0,0,0,1,0,0V11.405a0,0,0,0,1,0,0h0A1.342,1.342,0,0,1,0,10.063V1.342A1.342,1.342,0,0,1,1.342,0Z" transform="translate(0 0)" fill="url(#linear-gradient-4)"/>
        <path id="Rectangle_104" data-name="Rectangle 104" d="M0,0H0A1.342,1.342,0,0,1,1.342,1.342v8.722A1.342,1.342,0,0,1,0,11.405H0a0,0,0,0,1,0,0V0A0,0,0,0,1,0,0Z" transform="translate(1.342 11.405) rotate(180)" fill="url(#linear-gradient-5)"/>
      </g>
      <g id="Button-4" data-name="Button" transform="translate(0 23.608)">
        <path id="Rectangle_31" data-name="Rectangle 31" d="M1,0h.342a0,0,0,0,1,0,0V6.709a0,0,0,0,1,0,0H1a1,1,0,0,1-1-1V1A1,1,0,0,1,1,0Z" transform="translate(0 0)" fill="url(#linear-gradient-4)"/>
        <path id="Rectangle_149" data-name="Rectangle 149" d="M0,0H.342a1,1,0,0,1,1,1V5.709a1,1,0,0,1-1,1H0a0,0,0,0,1,0,0V0A0,0,0,0,1,0,0Z" transform="translate(1.342 6.709) rotate(180)" fill="url(#linear-gradient-5)"/>
      </g>
      <g id="Camera" transform="translate(52.329 4.823)">
        <ellipse id="Ellipse_7" data-name="Ellipse 7" cx="1.342" cy="1.342" rx="1.342" ry="1.342" transform="translate(0 0)" fill="url(#linear-gradient-12)"/>
        <circle id="Ellipse_8" data-name="Ellipse 8" cx="1.342" cy="1.342" r="1.342" transform="translate(0 0)" fill="url(#linear-gradient-3)"/>
        <ellipse id="Ellipse_10" data-name="Ellipse 10" cx="0.671" cy="0.671" rx="0.671" ry="0.671" transform="translate(0.671 0.671)" fill="#f3f3f3"/>
        <ellipse id="Ellipse_9" data-name="Ellipse 9" cx="0.335" cy="0.335" rx="0.335" ry="0.335" transform="translate(1.342 0.671)" fill="#fff"/>
      </g>
      <path id="Ear_Piece" data-name="Ear Piece" d="M1.205.5H12.291a.705.705,0,0,1,0,1.411H1.205A.705.705,0,1,1,1.205.5Z" transform="translate(36.759 5.446)" fill="#f3f3f3" stroke="#f9f8f8" stroke-width="1"/>
      <path id="Screen" d="M67.926,163.668H7.659A7.668,7.668,0,0,1,0,156.009V7.66A7.668,7.668,0,0,1,7.659,0h8.116a1.373,1.373,0,0,1,1.054,1.042c.033.146.068.337.108.558.077.425.173.952.316,1.485a3.821,3.821,0,0,0,3.735,2.969c1.032.011,7.467.013,12.683.013,9.6,0,20.606-.008,21.121-.013a3.821,3.821,0,0,0,3.735-2.969c.143-.534.239-1.062.316-1.486.04-.222.075-.412.108-.556A1.329,1.329,0,0,1,59.994,0h7.932a7.668,7.668,0,0,1,7.659,7.66v148.35A7.668,7.668,0,0,1,67.926,163.668Z" transform="translate(5.714 4.837)" fill="#eee"/>
      <path id="Home" d="M.5,0H25.7a.5.5,0,0,1,0,1.008H.5A.5.5,0,0,1,.5,0Z" transform="translate(30.506 165.079)" fill="#e2e2e2"/>
    </g>
  </g>
</svg>
