<svg xmlns="http://www.w3.org/2000/svg" width="27.419" height="27.419" viewBox="0 0 27.419 27.419">
  <g id="Group_11358" data-name="Group 11358" transform="translate(-117 -3213)">
    <g id="Group_38" data-name="Group 38" transform="translate(117 3213)">
      <path id="Path_38" data-name="Path 38" d="M63.493,230.366A13.71,13.71,0,1,1,77.2,216.657,13.725,13.725,0,0,1,63.493,230.366Zm0-25.946A12.237,12.237,0,1,0,75.73,216.657,12.251,12.251,0,0,0,63.493,204.42Z" transform="translate(-49.784 -202.947)" fill="#1ae5be"/>
    </g>
    <g id="Group_44" data-name="Group 44" transform="translate(122.669 3220.129)">
      <g id="Group_39" data-name="Group 39">
        <path id="Path_39" data-name="Path 39" d="M76.99,218.716a6.555,6.555,0,0,1-1.614.461c.26-.044.643-.514.8-.7a2.975,2.975,0,0,0,.537-.979c.014-.028.025-.063,0-.084a.091.091,0,0,0-.085.007,8.243,8.243,0,0,1-1.917.734.128.128,0,0,1-.132-.035,1.553,1.553,0,0,0-.168-.171,3.394,3.394,0,0,0-.929-.569,3.234,3.234,0,0,0-1.425-.23,3.4,3.4,0,0,0-1.351.382,3.49,3.49,0,0,0-1.091.891,3.358,3.358,0,0,0-.651,1.3,3.539,3.539,0,0,0-.035,1.377c.011.077,0,.087-.066.077a10.24,10.24,0,0,1-6.588-3.353c-.077-.087-.119-.087-.182.007a3.341,3.341,0,0,0,.57,3.947c.129.122.262.245.4.356a3.346,3.346,0,0,1-1.271-.356c-.077-.049-.116-.021-.122.066a1.991,1.991,0,0,0,.021.378,3.378,3.378,0,0,0,2.082,2.693,1.956,1.956,0,0,0,.422.129,3.763,3.763,0,0,1-1.247.039c-.091-.018-.126.028-.091.116a3.507,3.507,0,0,0,2.62,2.194c.119.021.238.021.357.049-.007.011-.014.011-.021.021a4.152,4.152,0,0,1-1.789.948,6.41,6.41,0,0,1-2.718.348c-.146-.022-.177-.02-.216,0s-.005.06.042.1c.185.123.374.231.566.336a8.978,8.978,0,0,0,1.816.727,9.675,9.675,0,0,0,9.392-2.2,9.856,9.856,0,0,0,2.6-7.19c0-.1.122-.161.195-.215a6.328,6.328,0,0,0,1.272-1.33.386.386,0,0,0,.078-.255v-.014C77.049,218.674,77.055,218.687,76.99,218.716Z" transform="translate(-61.07 -217.139)" fill="#1ae5be"/>
      </g>
      <g id="Group_40" data-name="Group 40" transform="translate(4.746 13.105)">
        <path id="Path_40" data-name="Path 40" d="M70.518,243.228Z" transform="translate(-70.518 -243.228)" fill="#1ae5be"/>
      </g>
      <g id="Group_41" data-name="Group 41" transform="translate(4.624 13.105)">
        <path id="Path_41" data-name="Path 41" d="M70.4,243.228c-.021,0-.264,0,0,0Z" transform="translate(-70.275 -243.228)" fill="#1ae5be"/>
      </g>
      <g id="Group_42" data-name="Group 42" transform="translate(5.284 13.107)">
        <path id="Path_42" data-name="Path 42" d="M71.589,243.244c0-.027.283,0,0,0C71.589,243.23,71.624,243.244,71.589,243.244Z" transform="translate(-71.589 -243.232)" fill="#1ae5be"/>
      </g>
      <g id="Group_43" data-name="Group 43" transform="translate(10.87 0.019)">
        <path id="Path_43" data-name="Path 43" d="M82.775,217.177a.056.056,0,0,1-.066,0Z" transform="translate(-82.709 -217.177)" fill="#1ae5be"/>
      </g>
    </g>
  </g>
</svg>
